<svg xmlns="http://www.w3.org/2000/svg" viewBox="0 0 958.17 166.52"><defs><style>.cls-1{fill:#0e415a;}.cls-2{fill:#0b7384;}.cls-3{fill:#53a00a;}.cls-4{fill:#d64405;}.cls-5{fill:gray;}</style></defs><title>Asset 1</title><g id="Layer_2" data-name="Layer 2"><g id="Layer_1-2" data-name="Layer 1"><path class="cls-1" d="M841,127.83l-10.86,25.73a83.32,83.32,0,0,0,89.6-.22l-11.14-25.51Z"/><path class="cls-2" d="M958.17,83.13A83.41,83.41,0,0,0,891.85,1.49l56.48,121A83,83,0,0,0,958.17,83.13Z"/><path class="cls-3" d="M868.44,0A83.36,83.36,0,0,0,802,123.84L852.28,15.47S857.08,2.44,868.44,0Z"/><polygon class="cls-4" points="853.05 97.59 895.59 97.59 874.2 47.2 853.05 97.59"/><path class="cls-5" d="M415.88,106.3l-6-14.83H382l-5.84,14.83H360.22l27.09-62.68c0-.09,2.31-6.38,7.55-6.38h7.33l30,69.06Zm-29.4-26.93H405l-9.31-23.55Z"/><path class="cls-5" d="M232,40.19v66.19H218.44v-4.33a20.49,20.49,0,0,1-13.71,5.45c-14.27,0-22-12.08-22-24.75,0-12.38,7.84-24.3,21.81-24.31,5,0,10.58,1.71,13.95,5.52V34.9h6C232.06,34.89,232,40.19,232,40.19ZM219.48,82.91c0-6.29-4.47-13.41-11.61-13.41S196,76.64,196,82.93s4.74,13.5,11.87,13.5S219.48,89.19,219.48,82.91Z"/><path class="cls-5" d="M124.62,106.38H111.17v-4.24s-5.69,5.45-13.61,5.45c-14.18,0-21.89-12.08-21.9-24.74,0-12.38,7.78-24.3,21.65-24.31,5,0,10.51,1.71,13.86,5.52V59.49h13.45ZM112.2,83c0-6.28-4.44-13.4-11.53-13.4S88.89,76.74,88.9,83s4.71,13.51,11.8,13.5S112.21,89.29,112.2,83Z"/><path class="cls-5" d="M283.73,98.56a24.83,24.83,0,0,1-19.65,9.15c-14.66,0-26-9.49-26-24.64s10.6-24.56,25.25-24.56C275.94,58.51,286,68.32,286,83v4.22l-34,0a11.53,11.53,0,0,0,11.42,9.91c4.79,0,8-2.49,10.47-5.81ZM272,78a9.5,9.5,0,0,0-9.37-9.72A10.44,10.44,0,0,0,252,78.06Z"/><path class="cls-5" d="M582.59,40.19v66.19H569.07v-4.33a20.52,20.52,0,0,1-13.71,5.45c-14.27,0-22-12.08-22.05-24.75,0-12.38,7.83-24.3,21.8-24.31,5.06,0,10.58,1.71,14,5.52V34.9h6C582.68,34.89,582.59,40.19,582.59,40.19ZM570.1,82.91c0-6.29-4.47-13.41-11.6-13.41s-11.86,7.14-11.86,13.43,4.74,13.5,11.88,13.5S570.11,89.19,570.1,82.91Z"/><path class="cls-5" d="M527.12,106.38H513.67v-4.24s-5.69,5.45-13.61,5.45c-14.18,0-21.89-12.08-21.9-24.74,0-12.38,7.78-24.3,21.65-24.31,5,0,10.5,1.71,13.86,5.52V59.49h13.45ZM514.7,83c0-6.28-4.44-13.4-11.53-13.4S491.39,76.74,491.4,83s4.71,13.51,11.8,13.5S514.7,89.29,514.7,83Z"/><path class="cls-5" d="M634.35,98.56a24.82,24.82,0,0,1-19.65,9.15c-14.65,0-26-9.49-26-24.64s10.6-24.56,25.25-24.56c12.64,0,22.66,9.81,22.66,24.52v4.22l-34,0A11.51,11.51,0,0,0,614,97.19c4.78,0,8-2.49,10.47-5.81ZM622.66,78a9.49,9.49,0,0,0-9.36-9.72,10.46,10.46,0,0,0-10.72,9.74Z"/><path class="cls-5" d="M292.27,59.49h13.38v6.29a17.42,17.42,0,0,1,14.47-7.65c13.3,0,17.28,9.78,17.3,22.53l0,25.72H329.6c-5.54,0-5.38-6.08-5.38-6.08V83.24c0-5.49-.92-12.91-8.78-12.91-7.65,0-9.79,5.32-9.79,12.53v23.52H292.27Z"/><path class="cls-5" d="M719.84,80.66c0-12.75-4-22.53-17.3-22.53-9.9,0-15,7.82-16.28,10,0-.09-.07-.19-.11-.28a14.28,14.28,0,0,0-7.76-8.37,19.19,19.19,0,0,0-7.51-1.36,17.42,17.42,0,0,0-14.48,7.65V59.49H643v46.89h13.37V82.86c0-7.21,2.15-12.53,9.79-12.53,5.87,0,7.87,4.14,8.5,8.52a30.28,30.28,0,0,1,.28,4.39V100.3s-.16,6.09,5.38,6.08h7.85l0-25.72v-.4c.51-5.85,3-9.93,9.68-9.93,7.86,0,8.77,7.42,8.78,12.91V100.3s-.16,6.09,5.38,6.08h7.85Z"/><path class="cls-5" d="M0,106.48V52.08a6.15,6.15,0,0,1,2-4.7,7.81,7.81,0,0,1,5-2.13H21L34.8,93.62,48.54,45.25h21v61.22H56.29V57.58L42.11,106.47H27.71L13.33,57.58v48.89Z"/><path class="cls-5" d="M161.17,114.83c-3.91,10.09-6.16,15.41-20.17,15.42a28.27,28.27,0,0,1-9.88-1.75l1.95-11.32a20.63,20.63,0,0,0,6.87,1.46c6.66,0,7.74-2.85,9.79-8l1.08-3.11-20.93-48h14.85l13.14,32.89,11-32.89h14Z"/><path class="cls-5" d="M752,114.83c-3.91,10.09-6.16,15.41-20.17,15.42a28.27,28.27,0,0,1-9.88-1.75l2-11.32a20.58,20.58,0,0,0,6.86,1.46c6.67,0,7.74-2.85,9.8-8l1.07-3.11-20.93-48h14.86l13.14,32.89,11-32.89h14Z"/><path class="cls-5" d="M456.38,96.65c-6.42.2-9.73-4.28-10.89-9a14,14,0,0,1-.63-4.46h0v-.09h0a14,14,0,0,1,.63-4.46c1.16-4.75,5.31-9,10.89-9A12.66,12.66,0,0,1,467,75.05l9.84-7.2a25.43,25.43,0,0,0-19.74-9.27c-15.41,0-25.71,9.58-25.75,24.48h0v0h0v0h0c0,13.7,8.89,24.49,25.75,24.49,8.68,0,15.12-3.39,19.74-9.27L467,91.18a12.7,12.7,0,0,1-10.62,5.47"/></g></g></svg>