<svg xmlns="http://www.w3.org/2000/svg" width="936" height="267.66" viewBox="0 0 936 267.66">
  <defs>
    <style>
      .cls-1 {
        fill: #0f0028;
      }
    </style>
  </defs>
  <g id="Layer_2" data-name="Layer 2">
    <g id="Layer_1-2" data-name="Layer 1">
      <g>
        <path class="cls-1" d="M302,144.26,287.63,91.15h-2l-14.38,53.11Zm2.54-71.72,32.81,118.4h-23l-7.1-26.39H266l-7.11,26.39h-23l32.81-118.4Z"/>
        <path class="cls-1" d="M381.85,104.68c23.34,0,37.88,13,42.28,32.13l-21,5.41c-1.53-10.15-8.12-18.6-21-18.6S359.52,133.76,359.52,149s9,25.37,22.66,25.37c12.86,0,18.78-7.44,21-18.44l21,5.25c-4.06,19.11-18.77,32.13-42.28,32.13-24.36,0-43.64-18.26-43.64-44.31s19.28-44.31,43.64-44.31"/>
        <path class="cls-1" d="M467.57,175.72c14.89,0,23.17-8.8,23.17-20.31v-2l-25.71,3c-7.94,1-11.83,4.57-11.83,9.48,0,5.74,4.9,9.81,14.37,9.81m6.43-71c22.33,0,38.06,13,38.06,33.31v52.95h-21V179.1h-2.36c-2.71,5.57-8.63,14.2-26.39,14.2-18.94,0-31.46-10.14-31.46-26.21,0-13.37,11.67-22.67,27.74-24.36l32.13-3.55v-2.71c0-7.78-5.75-14.54-17.59-14.54s-18.6,6.76-23,16.23L432.9,127.68c6.6-9.65,18.77-23,41.1-23"/>
        <path class="cls-1" d="M544.57,149c0,16.23,10.15,25.37,23,25.37,13.19,0,23-9.47,23-25.37s-9.81-25.37-23-25.37c-12.86,0-23,9.13-23,25.37m67.32,41.95h-21V179.1h-2.37c-4.4,7.1-11.84,14.2-26.72,14.2-21,0-38.57-18.6-38.57-44.31s17.59-44.31,38.57-44.31c14.88,0,22.32,7.1,26.72,14.2h2V72.54h21.31Z"/>
        <path class="cls-1" d="M685.09,140.7c-1.19-11-8.29-17.76-19.28-17.76-12,0-18.61,7.11-20,17.76Zm-19.12-36c24.36,0,40.77,17.08,40.77,42.28v7.95H645.67c.85,11.5,8.8,20.13,21,20.13,11.84,0,18.1-6.6,21-12.52L705,172.67c-5.75,8.79-15.56,20.63-38,20.63-25,0-43.13-18.94-43.13-45,0-25.37,17.42-43.63,42.11-43.63"/>
        <path class="cls-1" d="M739.64,107v12.52H742c3.55-8.12,10.49-13.87,22.16-13.87,10.82,0,18.77,5.75,22.32,14.21h2.37c3.72-7.78,10.49-14.21,23.85-14.21,15.39,0,27.74,11.67,27.74,29.09v56.16H819.13V136.47c0-7.78-5.58-12.17-13.69-12.17-8.8,0-15.23,5.07-15.23,15.56v51.08H768.9V136.47c0-7.78-5.58-12.17-13.7-12.17-8.79,0-15.22,5.07-15.22,15.56v51.08H718.67V107Z"/>
        <polygon class="cls-1" points="913 107.04 891.01 167.26 888.98 167.26 866.99 107.04 843.99 107.04 878.83 196.35 866.99 224.76 890 224.76 936 107.04 913 107.04"/>
        <path class="cls-1" d="M68.11,189A108.41,108.41,0,0,1,29.47,81.5,13.55,13.55,0,1,0,3,75.85,135.53,135.53,0,0,0,51.24,210.2,13.54,13.54,0,1,0,68.11,189"/>
        <path class="cls-1" d="M182.34,104.14a46.82,46.82,0,1,1-46.81-46.82,46.87,46.87,0,0,1,46.81,46.82M135.53,30.23a73.91,73.91,0,1,0,73.91,73.91,74,74,0,0,0-73.91-73.91"/>
        <path class="cls-1" d="M37.69,44.87A22.44,22.44,0,1,0,15.25,22.43,22.47,22.47,0,0,0,37.69,44.87"/>
        <path class="cls-1" d="M239.83,240.49h7.3c3.47,0,5.67-2.05,5.67-5.34s-2.2-5.38-5.67-5.38h-7.3Zm7.87-15.73c6.19,0,10.63,4.06,10.63,10.39s-4.58,10.35-10.63,10.35h-7.87v12.62h-5.52V224.76Z"/>
        <path class="cls-1" d="M271.19,254.46c4.48,0,7.29-2.67,7.29-6.49v-.57l-8,.86c-2.48.29-3.81,1.38-3.81,3.05,0,1.86,1.66,3.15,4.52,3.15m2.05-20.5c6.29,0,10.49,3.62,10.49,9.3v14.86h-5.15V254.6h-.67c-1,1.86-2.9,4.19-7.86,4.19-5.29,0-8.86-2.81-8.86-7.24,0-3.77,3.28-6.29,7.81-6.77l9.48-1v-.86c0-2.62-1.85-4.67-5.43-4.67s-5.67,2.05-7,4.81l-4.28-2.52A13,13,0,0,1,273.24,234"/>
        <path class="cls-1" d="M295.83,237.92h.67c.95-2.48,2.86-3.39,5.91-3.39h2.52v4.58h-3.62c-3.14,0-5.38,1.72-5.38,5.24v13.77h-5.2V234.63h5.1Z"/>
        <path class="cls-1" d="M314.32,234.63V227h5.2v7.67h6.91V239h-6.91v13.25c0,1,.47,1.43,1.33,1.43h4.24v4.43h-6.48a4.13,4.13,0,0,1-4.29-4.28V239h-6.43v-4.38Z"/>
        <path class="cls-1" d="M357.93,254.12c4.19,0,6.95-3.14,6.95-7.77s-2.76-7.72-6.95-7.72-7,3.15-7,7.72,2.77,7.77,7,7.77m0-20.16c6.95,0,12.2,5,12.2,12.39s-5.25,12.44-12.2,12.44-12.25-5.05-12.25-12.44S350.92,234,357.93,234"/>
        <path class="cls-1" d="M380,234.63v-5.39a4.29,4.29,0,0,1,4.43-4.48h6.15v4.34h-4c-.86,0-1.34.48-1.34,1.43v4.1h6.58V239h-6.58v19.11H380V239h-6.38v-4.38Z"/>
        <path class="cls-1" d="M415.93,234.63V227h5.19v7.67H428V239h-6.91v13.25c0,1,.48,1.43,1.34,1.43h4.24v4.43h-6.48a4.13,4.13,0,0,1-4.29-4.28V239h-6.44v-4.38Z"/>
        <path class="cls-1" d="M439,224.76v13.78h.57c1.05-2.24,3.29-4.34,7.72-4.34,5.2,0,9.2,3.62,9.2,9.82v14.1h-5.2V244.5c0-3.67-2.14-5.68-5.76-5.68-4.1,0-6.53,2.53-6.53,7.25v12.05h-5.19V224.76Z"/>
        <path class="cls-1" d="M480,244.21c-.34-3.62-2.62-5.77-6.1-5.77-3.72,0-6,2.29-6.34,5.77ZM473.93,234c6.72,0,11.34,4.67,11.34,11.73v2.09H467.49c.24,3.82,2.81,6.48,6.63,6.48a6.64,6.64,0,0,0,6.38-3.9l4.34,2.43c-1.62,2.67-4.34,6-10.63,6-7.1,0-12.1-5.34-12.1-12.63,0-7,4.91-12.2,11.82-12.2"/>
        <polygon class="cls-1" points="515.53 224.76 523.53 252.31 524.11 252.31 532.16 224.76 541.74 224.76 541.74 258.12 536.36 258.12 536.36 230.67 535.78 230.67 527.87 258.12 519.77 258.12 511.86 230.67 511.29 230.67 511.29 258.12 505.95 258.12 505.95 224.76 515.53 224.76"/>
        <path class="cls-1" d="M557.56,254.46c4.48,0,7.3-2.67,7.3-6.49v-.57l-8,.86c-2.48.29-3.81,1.38-3.81,3.05,0,1.86,1.66,3.15,4.52,3.15m2.05-20.5c6.29,0,10.49,3.62,10.49,9.3v14.86H565V254.6h-.67c-1,1.86-2.9,4.19-7.86,4.19-5.29,0-8.86-2.81-8.86-7.24,0-3.77,3.28-6.29,7.81-6.77l9.49-1v-.86c0-2.62-1.86-4.67-5.44-4.67s-5.67,2.05-7,4.81l-4.28-2.52A13,13,0,0,1,559.61,234"/>
        <polygon class="cls-1" points="593.16 234.63 586.45 252.22 585.87 252.22 579.15 234.63 573.48 234.63 583.39 259.36 579.87 267.66 585.54 267.66 598.84 234.63 593.16 234.63"/>
        <path class="cls-1" d="M606.89,246.35c0,4.91,3.05,7.77,7.05,7.77s7.1-3,7.1-7.77-3-7.77-7.1-7.77-7.05,2.86-7.05,7.77m19.35,11.77h-5.1v-3.57h-.67a8.53,8.53,0,0,1-7.91,4.24c-6,0-10.91-5.14-10.91-12.44s4.91-12.44,10.91-12.44a8.53,8.53,0,0,1,7.91,4.25H621v-13.4h5.2Z"/>
        <path class="cls-1" d="M650,244.21c-.33-3.62-2.62-5.77-6.1-5.77-3.72,0-6,2.29-6.34,5.77ZM643.92,234c6.72,0,11.34,4.67,11.34,11.73v2.09H637.49c.23,3.82,2.81,6.48,6.62,6.48a6.67,6.67,0,0,0,6.39-3.9l4.33,2.43c-1.62,2.67-4.33,6-10.62,6-7.11,0-12.11-5.34-12.11-12.63,0-7,4.91-12.2,11.82-12.2"/>
        <path class="cls-1" d="M666.08,234.63v3.91h.67c1-2.24,3.29-4.34,7.72-4.34,5.19,0,9.2,3.62,9.2,9.82v14.1h-5.2V244.5c0-3.67-2.14-5.68-5.76-5.68-4.1,0-6.53,2.53-6.53,7.25v12.05H661V234.63Z"/>
        <path class="cls-1" d="M704.44,237.78c0-8.44,5.29-13.68,13.63-13.68S731,228.67,731,236.39v.38h-5.48v-.47c0-4.43-2.57-7.29-7.44-7.29-5.09,0-8.1,3.62-8.1,8.53v7.81c0,5.2,2.86,8.53,8.1,8.53s7.44-2.67,7.44-7.1v-.62h-8.72V241.3H731v5.24c0,7.82-4.58,12.25-12.92,12.25s-13.63-4.76-13.63-13.68Z"/>
        <path class="cls-1" d="M742.24,237.92h.66c1-2.48,2.86-3.39,5.91-3.39h2.53v4.58h-3.62c-3.15,0-5.39,1.72-5.39,5.24v13.77h-5.19V234.63h5.1Z"/>
        <path class="cls-1" d="M766.16,254.12c4.19,0,7-3.14,7-7.77s-2.77-7.72-7-7.72-7,3.15-7,7.72,2.76,7.77,7,7.77m0-20.16c7,0,12.2,5,12.2,12.39s-5.24,12.44-12.2,12.44-12.25-5.05-12.25-12.44S759.16,234,766.16,234"/>
        <path class="cls-1" d="M801.52,258.12v-4h-.66c-1.05,2.29-3.29,4.34-7.72,4.34-5.2,0-9.2-3.58-9.2-9.77V234.63h5.19v13.58c0,3.72,2.15,5.72,5.77,5.72,4.1,0,6.53-2.57,6.53-7.24V234.63h5.19v23.49Z"/>
        <path class="cls-1" d="M833.31,246.35c0-4.91-3-7.72-7-7.72s-7.1,2.91-7.1,7.72,3,7.77,7.1,7.77,7-2.86,7-7.77M814,234.63h5.1v3.53h.67c1.28-2.1,3.48-4.2,7.91-4.2,6,0,10.91,5.15,10.91,12.39s-4.91,12.44-10.91,12.44c-4.43,0-6.63-2.09-7.91-4.24h-.57v13.11H814Z"/>
      </g>
    </g>
  </g>
</svg>
