<svg xmlns="http://www.w3.org/2000/svg" width="936" height="224.76" viewBox="0 0 936 224.76">
  <defs>
    <style>
      .cls-1 {
        fill: #fff;
      }
    </style>
  </defs>
  <g id="Layer_2" data-name="Layer 2">
    <g id="Layer_1-2" data-name="Layer 1">
      <g>
        <path class="cls-1" d="M302,144.26,287.63,91.15h-2l-14.38,53.11Zm2.54-71.72,32.81,118.4h-23l-7.1-26.39H266l-7.11,26.39h-23l32.81-118.4Z"/>
        <path class="cls-1" d="M381.85,104.68c23.34,0,37.88,13,42.28,32.13l-21,5.41c-1.53-10.15-8.12-18.6-21-18.6S359.52,133.76,359.52,149s9,25.37,22.66,25.37c12.86,0,18.78-7.44,21-18.44l21,5.25c-4.06,19.11-18.77,32.13-42.28,32.13-24.36,0-43.64-18.26-43.64-44.31s19.28-44.31,43.64-44.31"/>
        <path class="cls-1" d="M467.57,175.72c14.89,0,23.17-8.8,23.17-20.31v-2l-25.71,3c-7.94,1-11.83,4.57-11.83,9.48,0,5.74,4.9,9.81,14.37,9.81m6.43-71c22.33,0,38.06,13,38.06,33.31v52.95h-21V179.1h-2.36c-2.71,5.57-8.63,14.2-26.39,14.2-18.94,0-31.46-10.14-31.46-26.21,0-13.37,11.67-22.67,27.74-24.36l32.13-3.55v-2.71c0-7.78-5.75-14.54-17.59-14.54s-18.6,6.76-23,16.23L432.9,127.68c6.6-9.65,18.77-23,41.1-23"/>
        <path class="cls-1" d="M544.57,149c0,16.23,10.15,25.37,23,25.37,13.19,0,23-9.47,23-25.37s-9.81-25.37-23-25.37c-12.86,0-23,9.13-23,25.37m67.32,41.95h-21V179.1h-2.37c-4.4,7.1-11.84,14.2-26.72,14.2-21,0-38.57-18.6-38.57-44.31s17.59-44.31,38.57-44.31c14.88,0,22.32,7.1,26.72,14.2h2V72.54h21.31Z"/>
        <path class="cls-1" d="M685.09,140.7c-1.19-11-8.29-17.76-19.28-17.76-12,0-18.61,7.11-20,17.76Zm-19.12-36c24.36,0,40.77,17.08,40.77,42.28v7.95H645.67c.85,11.5,8.8,20.13,21,20.13,11.84,0,18.1-6.6,21-12.52L705,172.67c-5.75,8.79-15.56,20.63-38,20.63-25,0-43.13-18.94-43.13-45,0-25.37,17.42-43.63,42.11-43.63"/>
        <path class="cls-1" d="M739.64,107v12.52H742c3.55-8.12,10.49-13.87,22.16-13.87,10.82,0,18.77,5.75,22.32,14.21h2.37c3.72-7.78,10.49-14.21,23.85-14.21,15.39,0,27.74,11.67,27.74,29.09v56.16H819.13V136.47c0-7.78-5.58-12.17-13.69-12.17-8.8,0-15.23,5.07-15.23,15.56v51.08H768.9V136.47c0-7.78-5.58-12.17-13.7-12.17-8.79,0-15.22,5.07-15.22,15.56v51.08H718.67V107Z"/>
        <polygon class="cls-1" points="913 107.04 891.01 167.26 888.98 167.26 866.99 107.04 843.99 107.04 878.83 196.35 866.99 224.76 890 224.76 936 107.04 913 107.04"/>
        <path class="cls-1" d="M68.11,189A108.41,108.41,0,0,1,29.47,81.5,13.55,13.55,0,1,0,3,75.85,135.53,135.53,0,0,0,51.24,210.2,13.54,13.54,0,1,0,68.11,189"/>
        <path class="cls-1" d="M182.34,104.14a46.82,46.82,0,1,1-46.81-46.82,46.87,46.87,0,0,1,46.81,46.82M135.53,30.23a73.91,73.91,0,1,0,73.91,73.91,74,74,0,0,0-73.91-73.91"/>
        <path class="cls-1" d="M37.69,44.87A22.44,22.44,0,1,0,15.25,22.43,22.47,22.47,0,0,0,37.69,44.87"/>
      </g>
    </g>
  </g>
</svg>
