<svg id="Layer_1" data-name="Layer 1" xmlns="http://www.w3.org/2000/svg" viewBox="0 0 573.29 142.05"><defs><style>.cls-1{fill:gray;}.cls-2{fill:#0b7384;}.cls-3{fill:#53a00a;}.cls-4{fill:#d64405;}.cls-5{fill:#0e415a;}</style></defs><title>mayden_logotype_web_2018</title><path class="cls-1" d="M469.81,39.18v66.19H456.29V101a20.52,20.52,0,0,1-13.71,5.45c-14.27,0-22-12.08-22.06-24.74,0-12.38,7.84-24.3,21.81-24.32,5.06,0,10.58,1.72,14,5.53V33.89h6C469.9,33.88,469.81,39.18,469.81,39.18ZM457.32,81.9c0-6.29-4.47-13.42-11.61-13.41s-11.86,7.14-11.85,13.43,4.74,13.5,11.88,13.49S457.33,88.18,457.32,81.9Z" transform="translate(-2 -2)"/><path class="cls-1" d="M362.46,105.37H349v-4.24s-5.68,5.45-13.61,5.45c-14.17,0-21.89-12.08-21.9-24.75,0-12.37,7.78-24.29,21.66-24.3,5,0,10.5,1.71,13.85,5.52V58.48h13.45ZM350,82c0-6.28-4.44-13.41-11.53-13.4S326.74,75.73,326.74,82s4.71,13.5,11.8,13.5S350.05,88.27,350,82Z" transform="translate(-2 -2)"/><path class="cls-1" d="M521.57,97.55a24.82,24.82,0,0,1-19.65,9.14c-14.66,0-26-9.49-26-24.63s10.59-24.57,25.25-24.57c12.64,0,22.66,9.82,22.66,24.53v4.22l-34,0a11.51,11.51,0,0,0,11.42,9.91c4.78,0,8-2.49,10.47-5.81ZM509.88,77a9.48,9.48,0,0,0-9.36-9.72A10.44,10.44,0,0,0,489.8,77Z" transform="translate(-2 -2)"/><path class="cls-1" d="M530.12,58.48h13.37v6.29A17.41,17.41,0,0,1,558,57.11c13.3,0,17.29,9.79,17.3,22.53l0,25.73h-7.85c-5.54,0-5.38-6.09-5.38-6.09v-17c0-5.49-.91-12.91-8.78-12.91-7.64,0-9.79,5.32-9.79,12.53v23.52H530.12Z" transform="translate(-2 -2)"/><path class="cls-1" d="M237.84,105.47V51.06a6.13,6.13,0,0,1,2-4.69,7.83,7.83,0,0,1,5-2.13h13.92l13.83,48.37,13.75-48.37h21v61.22H294.13V56.57L280,105.46H265.55L251.17,56.57v48.88Z" transform="translate(-2 -2)"/><path class="cls-1" d="M399,113.81c-3.92,10.1-6.16,15.42-20.18,15.43a28.25,28.25,0,0,1-9.87-1.75l1.95-11.32a20.78,20.78,0,0,0,6.86,1.46c6.66,0,7.74-2.85,9.79-8l1.08-3.12-20.93-48h14.85l13.14,32.89,11-32.89h14Z" transform="translate(-2 -2)"/><path class="cls-2" d="M184.21,96.74c-22.88,0-32.54-25-52.4-25-15.37,0-20.41,15.2-35.81,15.2a21,21,0,1,1,0-42c15.25,0,20.56,15.18,35.78,15.18,19.88,0,29.56-24.93,52.43-24.93a30.78,30.78,0,0,1,0,61.55Z" transform="translate(-2 -2)"/><path class="cls-3" d="M36.67,69.23c25.84,0,39.27,29,59.15,29C111.2,98.23,116.25,83,131.67,83a21,21,0,1,1,0,42c-15.26,0-20.59-15.2-35.82-15.2-19.9,0-33.35,28.9-59.18,28.9a34.77,34.77,0,0,1,0-69.53Z" transform="translate(-2 -2)"/><path class="cls-4" d="M155.06,30.44A23.07,23.07,0,1,1,138,2.64,23.07,23.07,0,0,1,155.06,30.44Z" transform="translate(-2 -2)"/><path class="cls-5" d="M196.48,123.64a20.42,20.42,0,1,1-20.41-20.42A20.41,20.41,0,0,1,196.48,123.64Z" transform="translate(-2 -2)"/></svg>